<svg xmlns="http://www.w3.org/2000/svg" width="114.253" height="33.231" viewBox="0 0 114.253 33.231"><g data-name="Grupo 17359" fill="#0dcee6"><path data-name="Caminho 3892" d="M86.464 9.277a2.987 2.987 0 0 0-4.007 1.335l-6.29 12.579-6.289-12.579a2.987 2.987 0 0 0-5.344 2.672l8.961 17.922a2.987 2.987 0 0 0 5.344 0L87.8 13.284a2.987 2.987 0 0 0-1.335-4.007"/><path data-name="Caminho 3893" d="M23.022 9.836a2.988 2.988 0 0 0-4.225 0L5.974 22.659V2.987a2.987 2.987 0 0 0-5.974 0V29.87a2.987 2.987 0 0 0 5.1 2.112l6.849-6.848 6.848 6.848a2.987 2.987 0 0 0 4.225-4.224l-6.849-6.849 6.849-6.848a2.988 2.988 0 0 0 0-4.225"/><path data-name="Caminho 3894" d="M31.364 8.962a2.987 2.987 0 0 0-2.987 2.987v17.922a2.987 2.987 0 0 0 5.974 0V11.949a2.987 2.987 0 0 0-2.987-2.987"/><path data-name="Caminho 3895" d="M51.526 8.588a9.248 9.248 0 0 0-6.757 2.921 2.985 2.985 0 0 0-5.938.44v17.922a2.987 2.987 0 1 0 5.974 0v-9.335a5.974 5.974 0 0 1 11.948 0v9.335a2.987 2.987 0 0 0 5.975 0v-9.335c0-6.589-4.614-11.949-11.2-11.949"/><path data-name="Caminho 3896" d="M31.364 0a2.987 2.987 0 1 0 2.987 2.988A2.987 2.987 0 0 0 31.364 0"/><path data-name="Caminho 3897" d="M101.931 27.257a6.347 6.347 0 1 1 6.348-6.348 6.354 6.354 0 0 1-6.348 6.348m0-18.669a12.322 12.322 0 1 0 12.322 12.322 12.335 12.335 0 0 0-12.322-12.322"/></g></svg>